<?xml version="1.0" encoding="utf-8"?>
<!-- Generator: Adobe Illustrator 16.0.0, SVG Export Plug-In . SVG Version: 6.00 Build 0)  -->
<!DOCTYPE svg PUBLIC "-//W3C//DTD SVG 1.1//EN" "http://www.w3.org/Graphics/SVG/1.1/DTD/svg11.dtd">
<svg version="1.1" xmlns="http://www.w3.org/2000/svg" xmlns:xlink="http://www.w3.org/1999/xlink" x="0px" y="0px"
	 width="303.989px" height="303.992px" viewBox="0 0 303.989 303.992" enable-background="new 0 0 303.989 303.992"
	 xml:space="preserve">
<g id="Layer_2">
	<g>
		<path id="b1" fill="#848484" d="M151.995,0C67.982,0,0,67.982,0,151.995c0,27.7,7.428,53.635,20.35,75.988l131.645-75.988V0z"
			/>
		<path id="b2" fill="#C1C1C1" d="M151.995,0v151.995l131.647,75.988c12.92-22.354,20.347-48.288,20.347-75.988
			C303.989,67.982,236.008,0,151.995,0z"/>
		<path id="b3" fill="#979797" d="M20.35,227.983c26.261,45.44,75.333,76.009,131.645,76.009s105.384-30.568,131.647-76.009
			l-131.647-75.988L20.35,227.983z"/>
	</g>
</g>
<g id="Layer_1">
	<path fill="#ECECEC" d="M184.481,228.524c-1.126-3.813-4.766-6.164-8.443-5.649c-0.354,0.051-0.709,0.125-1.063,0.229l-4.495,1.328
		c-0.151,0.008-0.3,0.002-0.448-0.014c-1.318-0.133-2.529-1.14-2.969-2.621c-0.559-1.887,0.365-3.828,2.066-4.33l0.902-0.268v-0.132
		l6.286-1.856c4.015-1.187,6.272-5.535,5.035-9.715c-1.233-4.181-5.487-6.604-9.506-5.42l-9.166,2.711
		c-0.113,0.008-0.229,0.018-0.343,0.018c-2.106,0-3.817-1.707-3.817-3.814c0-0.238,0.024-0.473,0.067-0.701l-0.067-0.051v-4.941
		c0-3.582-2.899-6.481-6.48-6.481c-0.015,0-0.03,0-0.044,0c-0.015,0-0.03,0-0.045,0c-3.58,0-6.48,2.899-6.48,6.481v4.941
		l-0.068,0.051c0.045,0.229,0.068,0.463,0.068,0.701c0,2.107-1.71,3.814-3.817,3.814c-0.113,0-0.229-0.01-0.342-0.018l-9.167-2.711
		c-4.017-1.186-8.271,1.239-9.506,5.42c-1.238,4.18,1.021,8.528,5.035,9.715l6.288,1.856v0.132l0.902,0.268
		c1.701,0.502,2.625,2.443,2.066,4.33c-0.437,1.481-1.651,2.488-2.969,2.621c-0.148,0.016-0.297,0.021-0.448,0.014l-4.495-1.328
		c-0.354-0.104-0.709-0.178-1.063-0.229c-3.681-0.515-7.317,1.838-8.443,5.649c-1.235,4.177,1.019,8.524,5.035,9.71l9.414,2.781
		v0.048l4.331,1.278c1.698,0.498,2.693,2.197,2.224,3.785c-0.448,1.521-2.081,2.391-3.714,2.02l-2.14-0.632
		c-0.146-0.045-0.288-0.08-0.434-0.116l-0.267-0.08v0.016c-3.764-0.838-7.321,0.569-8.134,3.324
		c-0.864,2.922,1.692,6.25,5.709,7.438l20.454,6.037v0.007l0.006-0.003l0.006,0.003v-0.007l20.457-6.037
		c4.015-1.188,6.566-4.516,5.707-7.438c-0.814-2.755-4.371-4.162-8.135-3.324v-0.016l-0.269,0.08
		c-0.144,0.036-0.287,0.071-0.433,0.116l-2.142,0.632c-1.633,0.371-3.267-0.499-3.714-2.02c-0.469-1.588,0.525-3.287,2.225-3.785
		l4.33-1.278v-0.048l9.414-2.781C183.461,237.05,185.715,232.701,184.481,228.524z"/>
	<g>
		<path fill="#DCDCDC" d="M151.027,275.826c0,0.653,0.531,1.186,1.186,1.186s1.186-0.531,1.186-1.186v-69.707
			c0-0.656-0.531-1.188-1.186-1.188s-1.186,0.531-1.186,1.188V275.826z"/>
	</g>
	<g>
		<path fill="#ECECEC" d="M62.262,143.807c-8.315,0-16.23-9.06-17.221-10.242l6.605-5.575c2.972,3.5,8.707,8.024,11.334,7.054
			c0.511-0.19,4.99-2.435,4.821-22.294v-0.074c0.009-0.84,0.303-20.778,10.37-36.506l7.279,4.661
			c-8.577,13.403-8.989,31.07-9.004,31.892c0.151,18.061-3.177,27.73-10.468,30.429C64.746,143.608,63.5,143.807,62.262,143.807z"/>
	</g>
	<g>
		<path fill="#ECECEC" d="M105.833,146.271l-8.577-1.087c2.131-16.805,0.374-27.878-4.949-31.191
			c-5.421-3.373-14.906,1.33-17.8,3.242l-4.768-7.214c0.647-0.427,15.917-10.349,27.133-3.369
			C105.595,112.082,108.525,125.037,105.833,146.271z"/>
	</g>
	<g>
		<path fill="#ECECEC" d="M93.771,100.456c-1.549,0-3.058-0.217-4.521-0.653C78.8,96.68,75.558,83.63,75.427,83.078l8.407-2.016
			l-4.204,1.009l4.201-1.021c0.603,2.443,3.2,9.084,7.915,10.473c4.112,1.214,9.874-1.508,16.648-7.879l5.922,6.297
			C106.88,96.936,99.99,100.456,93.771,100.456z"/>
	</g>
	<g>
		<path fill="#ECECEC" d="M51.779,115.4c-0.039-0.564-0.107-1.196-0.181-1.885c-0.825-7.618-2.755-25.453,25.967-33.608l2.363,8.315
			c-21.704,6.163-20.519,17.114-19.735,24.364c0.086,0.781,0.166,1.523,0.214,2.224L51.779,115.4z"/>
	</g>
	<g>
		<path fill="#DCDCDC" d="M118.675,84.876c0,3.004-2.435,5.439-5.438,5.439c-3.004,0-5.438-2.435-5.438-5.439
			c0-3.007,2.434-5.438,5.438-5.438C116.24,79.438,118.675,81.87,118.675,84.876z"/>
	</g>
	<g>
		<path fill="#DCDCDC" d="M61.267,118.247c-0.825,2.892-3.838,4.56-6.727,3.732c-2.886-0.829-4.56-3.835-3.731-6.727
			c0.828-2.886,3.838-4.557,6.727-3.729C60.424,112.349,62.095,115.362,61.267,118.247z"/>
	</g>
	<g>
		<path fill="#DCDCDC" d="M106.616,147.533c0,3.001-2.435,5.438-5.438,5.438c-3.004,0-5.439-2.438-5.439-5.438
			c0-3.007,2.435-5.439,5.439-5.439C104.182,142.094,106.616,144.526,106.616,147.533z"/>
	</g>
	<g>
		<circle fill="#DCDCDC" cx="46.623" cy="128.679" r="5.438"/>
	</g>
	<g>
		<path fill="#DCDCDC" d="M92.328,72.8c0,5.468-4.432,9.9-9.9,9.9c-5.462,0-9.895-4.432-9.895-9.9c0-5.465,4.432-9.895,9.895-9.895
			C87.896,62.906,92.328,67.335,92.328,72.8z"/>
	</g>
	<g>
		<circle fill="#ECECEC" cx="218.77" cy="104.173" r="31.369"/>
		<circle fill="#DCDCDC" cx="218.771" cy="104.173" r="23.526"/>
	</g>
	<g>
		<path fill="#ECECEC" d="M264.133,127.498c0,1.728-1.123,3.132-2.504,3.132l0,0c-1.383,0-2.506-1.404-2.506-3.132V96.19
			c0-1.728,1.123-3.132,2.506-3.132l0,0c1.382,0,2.504,1.404,2.504,3.132V127.498z"/>
		<g>
			<path fill="#ECECEC" d="M266.101,78.253v12.023c0,0.614-0.399,1.113-0.894,1.113c-0.496,0-0.895-0.499-0.895-1.113V78.031h-1.79
				v12.246c0,0.614-0.399,1.113-0.894,1.113c-0.492,0-0.896-0.499-0.896-1.113V78.031h-1.787v12.246c0,0.614-0.4,1.113-0.896,1.113
				c-0.491,0-0.894-0.499-0.894-1.113V78.253c-1.045,0.481-1.786,1.695-1.786,3.117v13.359c0,1.844,1.243,3.34,2.781,3.34h6.955
				c1.537,0,2.784-1.496,2.784-3.34V81.371C267.891,79.949,267.146,78.734,266.101,78.253z"/>
		</g>
	</g>
	<g>
		<g>
			<ellipse fill="#ECECEC" cx="175.34" cy="88.05" rx="7.515" ry="10.019"/>
			<path fill="#ECECEC" d="M177.846,127.498c0,1.728-1.122,3.132-2.506,3.132l0,0c-1.383,0-2.506-1.404-2.506-3.132V96.19
				c0-1.728,1.123-3.132,2.506-3.132l0,0c1.384,0,2.506,1.404,2.506,3.132V127.498z"/>
		</g>
		<ellipse fill="#DCDCDC" cx="175.34" cy="87.617" rx="5.228" ry="6.97"/>
	</g>
</g>
</svg>
