<?xml version="1.0" encoding="utf-8"?>
<!-- Generator: Adobe Illustrator 16.0.0, SVG Export Plug-In . SVG Version: 6.00 Build 0)  -->
<!DOCTYPE svg PUBLIC "-//W3C//DTD SVG 1.1//EN" "http://www.w3.org/Graphics/SVG/1.1/DTD/svg11.dtd">
<svg version="1.1" xmlns="http://www.w3.org/2000/svg" xmlns:xlink="http://www.w3.org/1999/xlink" x="0px" y="0px"
	 width="303.988px" height="303.992px" viewBox="0 0 303.988 303.992" enable-background="new 0 0 303.988 303.992"
	 xml:space="preserve">
<g id="Explore">
</g>
<g id="Eat">
</g>
<g id="Exercise">
	<g>
		<g>
			<path d="M94.57,268.578c-27.027,0-52.751-29.446-55.973-33.29l21.468-18.119c9.66,11.378,28.3,26.08,36.837,22.928
				c1.662-0.618,16.22-7.914,15.669-72.462v-0.239c0.03-2.729,0.985-67.533,33.705-118.652l23.659,15.149
				c-27.877,43.562-29.217,100.983-29.266,103.656c0.491,58.703-10.325,90.129-34.022,98.9
				C102.643,267.931,98.593,268.578,94.57,268.578z"/>
		</g>
		<g>
			<path d="M236.184,276.587l-27.877-3.533c6.928-54.621,1.217-90.609-16.084-101.377c-17.621-10.964-48.449,4.322-57.855,10.536
				l-15.495-23.446c2.103-1.389,51.733-33.637,88.187-10.951C235.41,165.464,244.934,207.571,236.184,276.587z"/>
		</g>
		<g>
			<path d="M196.98,127.678c-5.035,0-9.939-0.704-14.695-2.124c-33.964-10.149-44.501-52.565-44.928-54.358l27.325-6.552
				l-13.664,3.279l13.655-3.319c1.959,7.941,10.4,29.525,25.725,34.04c13.363,3.946,32.092-4.9,54.109-25.608l19.248,20.466
				C239.586,116.237,217.193,127.678,196.98,127.678z"/>
		</g>
		<g>
			<path d="M60.496,176.249c-0.125-1.832-0.347-3.888-0.586-6.126c-2.683-24.762-8.956-82.729,84.396-109.233l7.682,27.025
				c-70.543,20.03-66.691,55.624-64.145,79.188c0.279,2.538,0.54,4.949,0.697,7.229L60.496,176.249z"/>
		</g>
		<g>
			<path d="M277.924,77.04c0,9.763-7.914,17.678-17.676,17.678c-9.764,0-17.674-7.915-17.674-17.678
				c0-9.773,7.91-17.675,17.674-17.675C270.01,59.365,277.924,67.27,277.924,77.04z"/>
		</g>
		<g>
			<path d="M91.335,185.502c-2.681,9.4-12.474,14.821-21.863,12.13c-9.381-2.694-14.821-12.464-12.127-21.864
				c2.691-9.379,12.474-14.811,21.864-12.119C88.595,166.332,94.027,176.125,91.335,185.502z"/>
		</g>
		<g>
			<path d="M238.729,280.688c0,9.753-7.914,17.674-17.676,17.674c-9.764,0-17.678-7.923-17.678-17.674
				c0-9.773,7.914-17.68,17.678-17.68C230.818,263.009,238.729,270.915,238.729,280.688z"/>
		</g>
		<g>
			<circle cx="43.739" cy="219.408" r="17.675"/>
		</g>
		<g>
			<path d="M192.291,37.79c0,17.773-14.406,32.178-32.178,32.178c-17.753,0-32.16-14.405-32.16-32.178
				c0-17.762,14.403-32.16,32.16-32.16C177.885,5.633,192.291,20.027,192.291,37.79z"/>
		</g>
	</g>
</g>
</svg>
