<?xml version="1.0" encoding="utf-8"?>
<!-- Generator: Adobe Illustrator 16.0.0, SVG Export Plug-In . SVG Version: 6.00 Build 0)  -->
<!DOCTYPE svg PUBLIC "-//W3C//DTD SVG 1.1//EN" "http://www.w3.org/Graphics/SVG/1.1/DTD/svg11.dtd">
<svg version="1.1" id="Layer_1" xmlns="http://www.w3.org/2000/svg" xmlns:xlink="http://www.w3.org/1999/xlink" x="0px" y="0px"
	 width="303.988px" height="303.992px" viewBox="0 0 303.988 303.992" enable-background="new 0 0 303.988 303.992"
	 xml:space="preserve">
<g id="Explore">
	<g>
		<path d="M252.72,139.209c-3.488-11.825-14.781-19.112-26.18-17.514c-1.096,0.157-2.199,0.388-3.295,0.708l-13.936,4.117
			c-0.471,0.025-0.932,0.007-1.395-0.041c-4.086-0.412-7.842-3.536-9.203-8.127c-1.734-5.852,1.129-11.871,6.404-13.427l2.797-0.83
			v-0.411l19.49-5.754c12.449-3.682,19.441-17.163,15.611-30.124c-3.82-12.966-17.012-20.476-29.479-16.806l-28.422,8.406
			c-0.346,0.024-0.707,0.055-1.064,0.055c-6.525,0-11.83-5.293-11.83-11.822c0-0.739,0.068-1.472,0.201-2.174l-0.201-0.158V29.987
			c0-11.107-8.988-20.094-20.092-20.094c-0.046,0-0.095,0-0.137,0c-0.046,0-0.094,0-0.139,0c-11.102,0-20.092,8.987-20.092,20.094
			v15.322l-0.212,0.158c0.14,0.708,0.212,1.435,0.212,2.174c0,6.529-5.305,11.822-11.837,11.822c-0.351,0-0.711-0.031-1.061-0.055
			L90.44,51.002c-12.458-3.676-25.648,3.84-29.476,16.806c-3.84,12.96,3.165,26.442,15.61,30.124l19.498,5.754v0.411l2.798,0.83
			c5.275,1.556,8.14,7.575,6.407,13.427c-1.356,4.591-5.12,7.715-9.208,8.127c-0.457,0.048-0.92,0.066-1.387,0.041l-13.938-4.117
			c-1.1-0.321-2.199-0.552-3.298-0.708c-11.413-1.599-22.686,5.7-26.177,17.514c-3.831,12.956,3.158,26.431,15.61,30.113
			l29.191,8.623v0.145l13.43,3.963c5.266,1.541,8.352,6.813,6.897,11.734c-1.39,4.721-6.452,7.42-11.518,6.27l-6.634-1.963
			c-0.452-0.141-0.894-0.246-1.344-0.355l-0.831-0.25v0.049c-11.67-2.6-22.699,1.764-25.221,10.309
			c-2.68,9.061,5.248,19.377,17.702,23.063l63.424,18.717v0.025l0.018-0.012l0.018,0.012v-0.025l63.434-18.717
			c12.455-3.686,20.359-14.002,17.695-23.063c-2.521-8.545-13.555-12.908-25.225-10.309v-0.049l-0.84,0.25
			c-0.447,0.109-0.887,0.215-1.344,0.355l-6.637,1.963c-5.066,1.15-10.135-1.549-11.521-6.27c-1.455-4.922,1.631-10.193,6.9-11.734
			l13.426-3.963v-0.145l29.191-8.623C249.56,165.648,256.551,152.166,252.72,139.209z"/>
		<path d="M146.477,286.662c0,2.02,2.474,3.674,5.517,3.674s5.517-1.646,5.517-3.674V70.515c0-2.035-2.474-3.682-5.517-3.682
			s-5.517,1.641-5.517,3.682V286.662z"/>
	</g>
</g>
</svg>
