<?xml version="1.0" encoding="utf-8"?>
<!-- Generator: Adobe Illustrator 16.0.0, SVG Export Plug-In . SVG Version: 6.00 Build 0)  -->
<!DOCTYPE svg PUBLIC "-//W3C//DTD SVG 1.1//EN" "http://www.w3.org/Graphics/SVG/1.1/DTD/svg11.dtd">
<svg version="1.1" xmlns="http://www.w3.org/2000/svg" xmlns:xlink="http://www.w3.org/1999/xlink" x="0px" y="0px"
	 width="605.058px" height="22.921px" viewBox="0 0 605.058 22.921" enable-background="new 0 0 605.058 22.921"
	 xml:space="preserve">
<g id="Layer_2">
</g>
<g id="Layer_1">
	<g>
		<rect id="p01" fill="#D2E2C9" width="22.921" height="22.921"/>
		<rect id="p02" x="29.107" fill="#D2E2C9" width="22.921" height="22.921"/>
		<rect id="p03" x="58.214" fill="#D2E2C9" width="22.921" height="22.921"/>
		<rect id="p04" x="87.32" fill="#D2E2C9" width="22.921" height="22.921"/>
		<rect id="p05" x="116.427" fill="#D2E2C9" width="22.921" height="22.921"/>
		<rect id="p06" x="145.534" fill="#D2E2C9" width="22.921" height="22.921"/>
		<rect id="p07" x="174.641" fill="#D2E2C9" width="22.921" height="22.921"/>
		<rect id="p08" x="203.748" fill="#D2E2C9" width="22.921" height="22.921"/>
		<rect id="p09" x="232.855" fill="#D2E2C9" width="22.921" height="22.921"/>
		<rect id="p10" x="261.962" fill="#D2E2C9" width="22.921" height="22.921"/>
		<rect id="p11" x="291.068" fill="#D2E2C9" width="22.922" height="22.921"/>
		<rect id="p12" x="320.175" fill="#D2E2C9" width="22.921" height="22.921"/>
		<rect id="p13" x="349.283" fill="#D2E2C9" width="22.92" height="22.921"/>
		<rect id="p14" x="378.389" fill="#D2E2C9" width="22.921" height="22.921"/>
		<rect id="p15" x="407.496" fill="#D2E2C9" width="22.922" height="22.921"/>
		<rect id="p16" x="436.603" fill="#D2E2C9" width="22.922" height="22.921"/>
		<rect id="p17" x="465.708" fill="#D2E2C9" width="22.922" height="22.921"/>
		<rect id="p18" x="494.816" fill="#D2E2C9" width="22.922" height="22.921"/>
		<rect id="p19" x="523.923" fill="#D2E2C9" width="22.92" height="22.921"/>
		<rect id="p20" x="553.031" fill="#D2E2C9" width="22.92" height="22.921"/>
		<rect id="p21" x="582.136" fill="#D2E2C9" width="22.922" height="22.921"/>
	</g>
</g>
</svg>
