<?xml version="1.0" encoding="utf-8"?>
<!-- Generator: Adobe Illustrator 16.0.0, SVG Export Plug-In . SVG Version: 6.00 Build 0)  -->
<!DOCTYPE svg PUBLIC "-//W3C//DTD SVG 1.1//EN" "http://www.w3.org/Graphics/SVG/1.1/DTD/svg11.dtd">
<svg version="1.1" id="Layer_1" xmlns="http://www.w3.org/2000/svg" xmlns:xlink="http://www.w3.org/1999/xlink" x="0px" y="0px"
	 width="605.058px" height="22.921px" viewBox="0 0 605.058 22.921" enable-background="new 0 0 605.058 22.921"
	 xml:space="preserve">
<g>
	<rect fill="#82C560" width="22.921" height="22.921"/>
	<rect x="29.107" fill="#82C560" width="22.921" height="22.921"/>
	<rect x="58.214" fill="#82C560" width="22.921" height="22.921"/>
	<rect x="87.32" fill="#82C560" width="22.921" height="22.921"/>
	<rect x="116.427" fill="#82C560" width="22.921" height="22.921"/>
	<rect x="145.534" fill="#82C560" width="22.921" height="22.921"/>
	<rect x="174.641" fill="#82C560" width="22.921" height="22.921"/>
	<rect x="203.748" fill="#F1EC6A" width="22.921" height="22.921"/>
	<rect x="232.855" fill="#F1EC6A" width="22.921" height="22.921"/>
	<rect x="261.962" fill="#F1EC6A" width="22.921" height="22.921"/>
	<rect x="291.068" fill="#F1EC6A" width="22.922" height="22.921"/>
	<rect x="320.176" fill="#F1EC6A" width="22.92" height="22.921"/>
	<rect x="349.282" fill="#F1EC6A" width="22.921" height="22.921"/>
	<rect x="378.389" fill="#D2E2C9" width="22.922" height="22.921"/>
	<rect x="407.496" fill="#D2E2C9" width="22.921" height="22.921"/>
	<rect x="436.603" fill="#D2E2C9" width="22.921" height="22.921"/>
	<rect x="465.709" fill="#D2E2C9" width="22.922" height="22.921"/>
	<rect x="494.816" fill="#D2E2C9" width="22.921" height="22.921"/>
	<rect x="523.924" fill="#D2E2C9" width="22.92" height="22.921"/>
	<rect x="553.03" fill="#D2E2C9" width="22.921" height="22.921"/>
	<rect x="582.137" fill="#D2E2C9" width="22.921" height="22.921"/>
</g>
</svg>
