<?xml version="1.0" encoding="utf-8"?>
<!-- Generator: Adobe Illustrator 16.0.0, SVG Export Plug-In . SVG Version: 6.00 Build 0)  -->
<!DOCTYPE svg PUBLIC "-//W3C//DTD SVG 1.1//EN" "http://www.w3.org/Graphics/SVG/1.1/DTD/svg11.dtd">
<svg version="1.1" id="Layer_1" xmlns="http://www.w3.org/2000/svg" xmlns:xlink="http://www.w3.org/1999/xlink" x="0px" y="0px"
	 width="300px" height="300px" viewBox="0 0 300 300" enable-background="new 0 0 300 300" xml:space="preserve">
<g>
	<path fill="#3798A6" d="M150,0C67.158,0,0,67.156,0,150l300,0C300,67.157,232.844,0,150,0z"/>
	<path fill="#CECECE" d="M150,300c82.844,0,150-67.156,150-150L0,150C0,232.842,67.158,300,150,300z"/>
</g>
<g>
	<circle fill="#CFE9D8" cx="153.06" cy="79.333" r="43.892"/>
	<circle fill="#B7D6BF" cx="153.062" cy="79.333" r="32.92"/>
</g>
<g>
	<path fill="#CFE9D8" d="M216.535,111.972c0,2.42-1.571,4.38-3.505,4.38l0,0c-1.936,0-3.506-1.96-3.506-4.38V68.165
		c0-2.419,1.57-4.381,3.506-4.381l0,0c1.934,0,3.505,1.961,3.505,4.381V111.972z"/>
	<g>
		<path fill="#CFE9D8" d="M219.288,43.069V59.89c0,0.859-0.561,1.558-1.252,1.558s-1.252-0.699-1.252-1.558V42.757h-2.504V59.89
			c0,0.859-0.561,1.558-1.25,1.558c-0.69,0-1.252-0.699-1.252-1.558V42.757h-2.504V59.89c0,0.859-0.559,1.558-1.252,1.558
			c-0.691,0-1.25-0.699-1.25-1.558V43.069c-1.465,0.673-2.504,2.368-2.504,4.361v18.691c0,2.581,1.742,4.672,3.895,4.672h9.734
			c2.15,0,3.895-2.092,3.895-4.672V47.43C221.792,45.437,220.749,43.742,219.288,43.069z"/>
	</g>
</g>
<g>
	<g>
		<ellipse fill="#CFE9D8" cx="92.289" cy="56.775" rx="10.514" ry="14.018"/>
		<path fill="#CFE9D8" d="M95.794,111.972c0,2.42-1.571,4.38-3.506,4.38l0,0c-1.935,0-3.505-1.96-3.505-4.38V68.165
			c0-2.419,1.57-4.381,3.505-4.381l0,0c1.935,0,3.506,1.961,3.506,4.381V111.972z"/>
	</g>
	<ellipse fill="#B7D6BF" cx="92.289" cy="56.168" rx="7.315" ry="9.754"/>
</g>
<g>
	<g>
		<path fill="#727272" d="M123.862,247.094c0,0-0.081-0.143-0.236-0.422c-0.148-0.273-0.405-0.699-0.658-1.217
			c-0.27-0.525-0.6-1.172-0.928-1.902c-0.169-0.369-0.353-0.766-0.548-1.186c-0.171-0.414-0.354-0.852-0.547-1.314
			c-0.392-0.947-0.663-1.988-0.993-3.141c-0.355-1.172-0.56-2.378-0.841-3.732c-0.143-0.701-0.256-1.31-0.358-1.982
			c-0.118-0.67-0.205-1.346-0.292-2.043c-0.178-1.389-0.312-2.851-0.377-4.329c-0.063-1.464-0.072-2.97-0.016-4.505
			c0.044-1.545,0.153-3.112,0.36-4.652c0.385-3.111,1.001-6.312,1.963-9.4c0.921-3.133,2.19-6.166,3.687-9.117
			c0.735-1.486,1.595-2.906,2.485-4.313c0.903-1.397,1.814-2.791,2.854-4.107c2.068-2.635,4.281-5.142,6.808-7.375
			c1.252-1.123,2.506-2.201,3.857-3.2c1.36-0.999,2.749-1.938,4.156-2.812c1.39-0.873,2.851-1.69,4.367-2.397
			c0.742-0.366,1.479-0.725,2.235-1.041c0.749-0.326,1.479-0.655,2.238-0.938c1.528-0.585,3.088-1.085,4.604-1.52
			c1.535-0.431,2.973-0.806,4.533-1.079c1.525-0.279,3.008-0.49,4.438-0.631c0.719-0.068,1.404-0.139,2.098-0.168
			c0.701-0.039,1.405-0.061,2.099-0.044c0.685,0.015,1.345,0.024,1.981,0.038c0.317,0.011,0.627,0.02,0.932,0.03
			c0.313,0.027,0.621,0.052,0.923,0.077c1.204,0.113,2.249,0.189,3.337,0.422c0.52,0.101,1.01,0.198,1.471,0.289
			c0.463,0.102,0.908,0.226,1.311,0.328c0.799,0.204,1.494,0.43,2.055,0.622c0.549,0.177,0.998,0.374,1.286,0.486
			c0.292,0.118,0.44,0.181,0.44,0.181s-0.035,0.66-0.102,1.9c-0.037,0.594-0.078,1.316-0.145,2.102
			c-0.025,0.395-0.053,0.817-0.083,1.27c-0.034,0.425-0.071,0.877-0.11,1.354c-0.127,1.886-0.271,4.202-0.477,6.509
			c-0.035,0.604-0.102,1.166-0.156,1.771c-0.048,0.633-0.121,1.246-0.185,1.88c-0.129,1.261-0.289,2.526-0.476,3.788
			c-0.19,1.225-0.389,2.613-0.637,3.906c-0.246,1.315-0.526,2.604-0.852,3.895c-0.63,2.699-1.438,5.218-2.412,7.827
			c-0.49,1.294-1.031,2.554-1.623,3.784c-0.585,1.24-1.205,2.506-1.891,3.701c-1.379,2.385-2.895,4.759-4.629,6.943
			c-0.871,1.088-1.746,2.195-2.689,3.236c-0.924,1.056-1.944,2.035-2.936,3.031c-2.005,1.975-4.232,3.756-6.5,5.42
			c-1.141,0.824-2.34,1.605-3.54,2.34c-0.297,0.188-0.591,0.373-0.884,0.559c-0.307,0.178-0.613,0.354-0.918,0.529
			c-0.604,0.354-1.207,0.701-1.84,1.021c-0.619,0.33-1.238,0.658-1.871,0.961c-0.617,0.305-1.215,0.619-1.853,0.9
			c-1.24,0.584-2.501,1.121-3.765,1.623c-2.46,0.99-4.931,1.881-7.271,2.553c-2.248,0.641-4.411,1.199-6.351,1.701
			c-0.481,0.145-0.937,0.281-1.366,0.41c-0.45,0.117-0.872,0.23-1.265,0.332c-0.775,0.209-1.484,0.369-2.063,0.494
			c-0.56,0.133-1.054,0.203-1.361,0.266C124.023,247.067,123.862,247.094,123.862,247.094z"/>
	</g>
</g>
<g>
	<g>
		<path fill="#464646" d="M118.494,276.385c-0.084,0-0.171-0.004-0.256-0.01c-1.693-0.139-2.949-1.623-2.811-3.314
			c0.056-0.684,1.459-16.996,8.61-36.393c9.548-25.902,24.908-44.746,44.415-54.49c1.519-0.76,3.365-0.143,4.123,1.378
			c0.76,1.519,0.144,3.364-1.375,4.122c-43.851,21.906-49.594,85.25-49.646,85.889C121.42,275.168,120.075,276.385,118.494,276.385z
			"/>
	</g>
</g>
</svg>
